<?xml version="1.0" encoding="UTF-8" standalone="no"?>
<svg
   height="48"
   viewBox="0 -960 960 960"
   width="48"
   version="1.1"
   id="svg11"
   sodipodi:docname="light_mode.svg"
   inkscape:version="1.2.2 (b0a8486541, 2022-12-01)"
   xmlns:inkscape="http://www.inkscape.org/namespaces/inkscape"
   xmlns:sodipodi="http://sodipodi.sourceforge.net/DTD/sodipodi-0.dtd"
   xmlns="http://www.w3.org/2000/svg"
   xmlns:svg="http://www.w3.org/2000/svg">
  <defs
     id="defs15" />
  <sodipodi:namedview
     id="namedview13"
     pagecolor="#505050"
     bordercolor="#ffffff"
     borderopacity="1"
     inkscape:showpageshadow="0"
     inkscape:pageopacity="0"
     inkscape:pagecheckerboard="1"
     inkscape:deskcolor="#505050"
     showgrid="false"
     inkscape:zoom="16.791667"
     inkscape:cx="15.692308"
     inkscape:cy="24.774194"
     inkscape:window-width="1920"
     inkscape:window-height="1012"
     inkscape:window-x="1920"
     inkscape:window-y="0"
     inkscape:window-maximized="1"
     inkscape:current-layer="svg11" />
  <path
     d="m 480,-304.94531 q -72.64771,0 -123.8512,-51.20349 -51.20349,-51.20349 -51.20349,-123.8512 0,-72.64771 51.20349,-123.8512 51.20349,-51.20349 123.8512,-51.20349 72.64771,0 123.8512,51.20349 51.20349,51.20349 51.20349,123.8512 0,72.64771 -51.20349,123.8512 Q 552.64771,-304.94531 480,-304.94531 Z M 121.13786,-438.86216 q -17.28666,0 -29.212258,-11.96934 Q 80,-462.80177 80,-480.15317 q 0,-17.35228 11.925602,-29.1685 11.925598,-11.81617 29.212258,-11.81617 h 87.52735 q 17.28663,0 29.21223,11.96934 11.92561,11.97027 11.92561,29.32167 0,17.35228 -11.92561,29.1685 -11.9256,11.81617 -29.21223,11.81617 z m 630.19693,0 q -17.28663,0 -29.21223,-11.96934 -11.92561,-11.97027 -11.92561,-29.32167 0,-17.35228 11.92561,-29.1685 11.9256,-11.81617 29.21223,-11.81617 h 87.52737 q 17.28664,0 29.21224,11.96934 11.9256,11.97027 11.9256,29.32167 0,17.35228 -11.9256,29.1685 -11.9256,11.81617 -29.21224,11.81617 z M 479.84683,-710.19695 q -17.35228,0 -29.1685,-11.92561 -11.81617,-11.9256 -11.81617,-29.21223 v -87.52737 q 0,-17.28664 11.96934,-29.21224 Q 462.80177,-880 480.15317,-880 q 17.35228,0 29.1685,11.9256 11.81617,11.9256 11.81617,29.21224 v 87.52737 q 0,17.28663 -11.96934,29.21223 -11.97027,11.92561 -29.32167,11.92561 z m 0,630.19695 q -17.35228,0 -29.1685,-11.9256 -11.81617,-11.9256 -11.81617,-29.21225 v -87.52736 q 0,-17.28663 11.96934,-29.21223 11.97027,-11.92561 29.32167,-11.92561 17.35228,0 29.1685,11.92561 11.81617,11.9256 11.81617,29.21223 v 87.52736 q 0,17.28665 -11.96934,29.21225 Q 497.19823,-80 479.84683,-80 Z m -220.41577,-561.9256 -49.89057,-49.01533 q -12.25386,-12.25381 -11.92909,-29.4118 0.32383,-17.15887 11.83892,-30.19695 12.1628,-12.16369 28.88403,-12.16369 16.72034,0 29.84945,12.25386 l 49.8906,49.89057 q 11.37857,12.25385 11.37857,28.88403 0,16.63022 -11.37857,28.44638 -12.25381,11.81622 -29.32167,12.6915 -17.06782,0.87524 -29.32167,-11.37857 z m 432.38514,432.38511 -49.8906,-49.89057 q -11.37857,-12.25385 -11.37857,-28.77464 0,-16.52079 11.81621,-28.99342 11.81617,-12.25385 28.88403,-12.25385 17.06782,0 29.32167,12.25385 l 49.89057,48.14005 q 12.25386,12.25381 11.92909,29.4118 -0.32383,17.15887 -11.83892,30.19695 -12.1628,12.16369 -28.88403,12.16369 -16.72034,0 -29.84945,-12.25386 z M 642.80088,-641.9256 q -12.25385,-12.25381 -12.25385,-29.32167 0,-17.06782 12.25385,-29.32167 l 48.14005,-49.89057 q 12.25381,-12.25386 29.4118,-11.92909 17.15887,0.32383 30.19695,11.83892 12.16369,12.1628 12.16369,28.88403 0,16.72034 -12.25386,29.84945 l -49.89057,49.8906 q -11.37857,11.37857 -28.32737,11.37857 -16.94791,0 -29.44069,-11.37857 z m -433.35056,432.47528 q -12.16369,-12.1628 -12.16369,-28.88403 0,-16.72034 12.25386,-29.84945 l 49.89057,-49.8906 q 12.07877,-12.25381 28.35887,-12.25381 16.28009,0 29.06697,12.25381 12.59607,12.25381 12.59607,29.32167 0,17.06782 -12.25385,29.32167 l -48.14005,49.89057 q -12.25381,12.25386 -29.4118,11.92909 -17.15887,-0.32383 -30.19695,-11.83892 z"
     id="path9"
     style="stroke-width:0.875273" />
</svg>
