<svg xmlns="http://www.w3.org/2000/svg" viewBox="0 0 24 24"><g transform="matrix(.189 0 0 .189 7.79e-5 3)" data-name="图层 2"><g data-name="Discord Logos"><g data-name="Discord Logo - Large - White"><path d="m108 8.07a105 105 0 0 0-26.2-8.07 72.1 72.1 0 0 0-3.36 6.83 97.7 97.7 0 0 0-29.1 0 72.4 72.4 0 0 0-3.36-6.83 106 106 0 0 0-26.2 8.09c-16.6 24.6-21.1 48.5-18.8 72.1a106 106 0 0 0 32.2 16.2 77.7 77.7 0 0 0 6.89-11.1 68.4 68.4 0 0 1-10.8-5.18c0.91-0.66 1.8-1.34 2.66-2a75.6 75.6 0 0 0 64.3 0c0.87 0.71 1.76 1.39 2.66 2a68.7 68.7 0 0 1-10.9 5.19 77 77 0 0 0 6.89 11.1 105 105 0 0 0 32.2-16.1c2.64-27.4-4.51-51.1-18.9-72.2zm-65.2 57.6c-6.27 0-11.4-5.69-11.4-12.7s5-12.7 11.4-12.7 11.6 5.74 11.5 12.7-5.05 12.7-11.4 12.7zm42.2 0c-6.28 0-11.4-5.69-11.4-12.7s5-12.7 11.4-12.7 11.5 5.74 11.4 12.7-5.04 12.7-11.4 12.7z"/></g></g></g></svg>
